# xmcd
#
# Track frame offsets: 
#        150
#        13070
#        30294
#        44165
#        65418
#        83431
#        102078
#        119902
#        137117
#        163510
#
# Disc length: 2376 seconds
#
# Revision: 0
# Processed by: cddbd v1.5.2PL0 Copyright (c) Steve Scherf et al.
# Submitted via: ExactAudioCopy v1.2
#
DISCID=8009460a
DTITLE=Chris Cain - Chris Cain
DYEAR=2017
DGENRE=Blues
TTITLE0=Tired of the Way You Do
TTITLE1=Meanest Woman in Town
TTITLE2=My Baby Wants to Leave Me
TTITLE3=Tell Tale Signs
TTITLE4=Trying to Forget It
TTITLE5=Back on Top
TTITLE6=Evil Minded Woman
TTITLE7=Kidney Stew
TTITLE8=Sitting and Wondering
TTITLE9=You're Gonna Need Me
EXTD=
EXTT0=
EXTT1=
EXTT2=
EXTT3=
EXTT4=
EXTT5=
EXTT6=
EXTT7=
EXTT8=
EXTT9=
PLAYORDER=
